<svg width="16" height="502" viewBox="0 0 16 502" fill="none" xmlns="http://www.w3.org/2000/svg">
<path d="M7.29289 501.707C7.68342 502.098 8.31658 502.098 8.70711 501.707L15.0711 495.343C15.4616 494.953 15.4616 494.319 15.0711 493.929C14.6805 493.538 14.0474 493.538 13.6569 493.929L8 499.586L2.34315 493.929C1.95262 493.538 1.31946 493.538 0.928932 493.929C0.538408 494.319 0.538408 494.953 0.928932 495.343L7.29289 501.707ZM8.70711 0.292893C8.31658 -0.0976311 7.68342 -0.0976311 7.29289 0.292893L0.928932 6.65685C0.538408 7.04738 0.538408 7.68054 0.928932 8.07107C1.31946 8.46159 1.95262 8.46159 2.34315 8.07107L8 2.41421L13.6569 8.07107C14.0474 8.46159 14.6805 8.46159 15.0711 8.07107C15.4616 7.68054 15.4616 7.04738 15.0711 6.65685L8.70711 0.292893ZM9 501V1H7V501H9Z" fill="black" fill-opacity="0.8"/>
</svg>
